<?xml version="1.0" standalone="no"?>
<!DOCTYPE svg PUBLIC "-//W3C//DTD SVG 20010904//EN"
 "http://www.w3.org/TR/2001/REC-SVG-20010904/DTD/svg10.dtd">
<svg version="1.0" xmlns="http://www.w3.org/2000/svg"
 width="400.000000pt" height="157.000000pt" viewBox="0 0 400.000000 157.000000"
 preserveAspectRatio="xMidYMid meet">

<g transform="translate(0.000000,157.000000) scale(0.100000,-0.100000)"
fill="#077582" stroke="none">
<path d="M272 783 l3 -508 508 -3 507 -2 0 510 0 510 -510 0 -510 0 2 -507z
m324 134 c2 -2 1 -13 -3 -26 -4 -17 -11 -21 -27 -17 -64 18 -66 18 -73 1 -5
-13 8 -31 51 -69 49 -44 57 -56 56 -87 0 -47 -27 -71 -87 -76 -68 -7 -102 8
-96 41 6 29 8 30 52 15 24 -8 35 -8 46 1 23 19 19 26 -32 65 -91 68 -87 142 7
168 14 3 100 -9 106 -16z m252 4 c8 -5 12 -17 10 -27 -3 -16 -11 -19 -60 -16
-49 3 -58 1 -72 -19 -28 -40 -17 -128 18 -151 6 -4 23 -8 38 -8 26 0 27 2 30
58 3 56 3 57 33 57 l30 0 3 -72 c3 -84 -4 -91 -91 -100 -43 -4 -58 -1 -87 19
-88 59 -93 172 -10 242 26 21 42 26 88 26 31 0 63 -4 70 -9z m150 -48 l3 -53
45 0 45 0 -2 53 c-3 52 -3 52 29 55 l32 3 0 -141 0 -141 -32 3 -32 3 3 58 2
57 -45 0 -46 0 0 -60 0 -60 -40 0 -40 0 0 133 c0 74 3 137 7 141 4 4 21 6 38
4 29 -3 30 -5 33 -55z"/>
<path d="M1628 1124 c-23 -10 -42 -27 -52 -49 -31 -64 -13 -157 35 -183 34
-18 123 -12 127 8 2 12 -7 14 -46 12 -44 -3 -52 -1 -71 23 -26 33 -28 100 -5
133 22 32 58 44 91 31 20 -7 28 -7 34 3 11 17 1 25 -41 32 -21 3 -49 0 -72
-10z"/>
<path d="M2243 1093 c-4 -10 -12 -22 -20 -26 -18 -11 -17 -27 2 -27 12 0 15
-14 15 -68 0 -40 5 -73 12 -80 19 -19 78 -15 78 4 0 11 -5 14 -16 10 -30 -11
-44 13 -44 75 0 59 0 59 30 59 20 0 30 5 30 15 0 10 -10 15 -30 15 -23 0 -30
4 -30 20 0 25 -18 26 -27 3z"/>
<path d="M1811 1046 c-33 -35 -33 -107 0 -142 20 -21 31 -24 74 -22 38 2 51 7
53 21 3 15 0 16 -23 7 -38 -14 -52 -13 -75 10 -38 38 -27 50 45 50 65 0 65 0
65 28 0 67 -91 99 -139 48z m93 -18 c21 -29 12 -38 -40 -38 -48 0 -54 10 -24
40 26 26 45 25 64 -2z"/>
<path d="M2000 975 c0 -88 1 -95 20 -95 18 0 20 7 20 63 0 76 14 100 55 95
l30 -3 3 -77 c3 -70 5 -78 22 -78 18 0 20 7 20 78 0 64 -4 82 -18 95 -22 20
-64 22 -95 6 -16 -9 -22 -9 -25 0 -2 6 -10 11 -18 11 -11 0 -14 -20 -14 -95z"/>
<path d="M2370 975 c0 -88 1 -95 20 -95 18 0 20 7 20 63 0 67 13 91 54 98 11
2 21 10 24 17 5 17 -43 15 -58 -3 -7 -8 -16 -15 -21 -15 -5 0 -9 7 -9 15 0 8
-7 15 -15 15 -12 0 -15 -17 -15 -95z"/>
<path d="M2530 987 c0 -51 5 -88 12 -95 16 -16 80 -15 97 1 11 10 14 10 18 0
3 -7 11 -13 19 -13 11 0 14 20 14 95 0 78 -3 95 -15 95 -11 0 -15 -13 -15 -54
0 -68 -13 -102 -40 -111 -40 -13 -60 19 -60 97 0 54 -3 68 -15 68 -12 0 -15
-16 -15 -83z"/>
<path d="M2760 975 c0 -78 3 -95 15 -95 11 0 15 13 15 54 0 78 13 106 49 106
36 0 41 -13 41 -96 0 -56 2 -64 19 -64 16 0 18 6 14 44 -3 24 0 60 7 80 11 34
15 37 43 34 l32 -3 3 -77 c3 -70 5 -78 22 -78 18 0 20 7 20 73 0 89 -15 117
-65 117 -18 0 -40 -7 -48 -15 -13 -13 -16 -13 -27 0 -14 17 -63 20 -91 5 -13
-7 -19 -7 -19 0 0 5 -7 10 -15 10 -12 0 -15 -17 -15 -95z"/>
<path d="M2130 590 c0 -109 2 -130 15 -130 13 0 15 21 15 130 0 109 -2 130
-15 130 -13 0 -15 -21 -15 -130z"/>
<path d="M3187 714 c-14 -15 -6 -34 14 -34 14 0 19 5 17 17 -3 18 -20 27 -31
17z"/>
<path d="M1543 697 c2 -7 17 -63 33 -125 26 -101 31 -112 51 -112 23 0 28 11
63 148 6 23 13 42 15 42 2 0 9 -19 15 -42 36 -138 41 -148 64 -148 20 0 25 12
54 122 17 67 29 124 27 126 -16 17 -36 -18 -56 -102 -22 -92 -38 -122 -40 -73
0 12 -10 56 -23 97 -17 60 -26 75 -41 75 -16 0 -24 -15 -42 -80 -12 -44 -23
-88 -23 -97 0 -45 -17 -9 -38 82 -20 86 -26 100 -44 100 -12 0 -18 -5 -15 -13z"/>
<path d="M2689 668 c-7 -13 -19 -28 -28 -35 -14 -11 -14 -12 2 -13 14 0 17
-10 17 -69 0 -78 15 -104 58 -99 33 4 40 25 10 30 -21 3 -23 9 -26 71 -3 66
-3 67 23 67 14 0 25 5 25 10 0 6 -11 10 -25 10 -20 0 -25 5 -25 25 0 31 -15
32 -31 3z"/>
<path d="M3510 680 c0 -5 -10 -20 -21 -31 -20 -20 -20 -23 -5 -31 12 -7 16
-25 16 -78 0 -60 3 -71 21 -80 24 -13 61 -10 66 7 3 7 -8 13 -24 15 -27 3 -28
5 -31 71 l-3 67 31 0 c37 0 40 18 3 22 -20 2 -29 9 -31 26 -3 21 -22 32 -22
12z"/>
<path d="M1945 638 c-33 -18 -45 -40 -45 -84 0 -57 7 -72 42 -90 39 -20 92
-11 113 19 15 22 20 92 9 122 -7 19 -55 45 -81 45 -10 0 -27 -6 -38 -12z m79
-40 c32 -45 8 -118 -38 -118 -32 0 -51 25 -51 70 0 21 7 45 14 54 19 23 57 20
75 -6z"/>
<path d="M2265 638 c-33 -18 -45 -40 -45 -84 0 -57 7 -72 42 -90 34 -18 89
-12 107 10 21 25 30 74 20 111 -15 53 -76 80 -124 53z m79 -40 c32 -45 8 -118
-38 -118 -32 0 -51 25 -51 70 0 21 7 45 14 54 19 23 57 20 75 -6z"/>
<path d="M2508 636 c-16 -8 -28 -11 -28 -5 0 5 -7 9 -15 9 -12 0 -15 -17 -15
-90 0 -79 2 -90 18 -90 14 0 17 8 14 52 -3 63 14 102 48 106 35 6 50 -22 50
-95 0 -49 3 -63 15 -63 12 0 15 15 15 79 0 71 -2 82 -22 95 -28 20 -45 20 -80
2z"/>
<path d="M2853 643 c-13 -2 -23 -11 -23 -19 0 -12 8 -13 35 -8 37 7 65 -7 65
-32 0 -9 -11 -14 -29 -14 -69 0 -109 -37 -91 -84 12 -34 55 -44 92 -23 16 9
30 12 33 6 16 -26 25 -1 25 70 0 71 -2 82 -22 95 -22 16 -41 18 -85 9z m77
-112 c0 -27 -27 -51 -56 -51 -35 0 -43 29 -15 52 31 25 71 24 71 -1z"/>
<path d="M3030 555 c0 -78 3 -95 15 -95 11 0 15 13 15 54 0 59 20 95 55 100
23 3 34 36 12 36 -8 0 -26 -9 -40 -20 -25 -20 -25 -20 -30 0 -3 11 -10 20 -16
20 -7 0 -11 -33 -11 -95z"/>
<path d="M3312 643 c-39 -8 -18 -28 29 -28 38 0 44 -3 47 -22 3 -19 -1 -23
-23 -23 -14 0 -41 -7 -60 -14 -29 -12 -35 -20 -35 -45 0 -56 51 -78 100 -44
17 12 25 13 28 5 2 -7 10 -12 18 -12 19 0 20 138 1 163 -13 18 -66 28 -105 20z
m78 -117 c0 -30 -22 -49 -52 -44 -50 7 -25 68 29 68 18 0 23 -6 23 -24z"/>
<path d="M3180 550 c0 -83 1 -90 20 -90 19 0 20 7 20 90 0 83 -1 90 -20 90
-19 0 -20 -7 -20 -90z"/>
<path d="M3630 565 c0 -62 4 -79 20 -95 24 -24 57 -26 87 -5 14 10 24 12 28 5
3 -5 13 -10 21 -10 11 0 14 18 14 90 0 83 -1 90 -20 90 -18 0 -20 -7 -20 -64
0 -68 -14 -96 -49 -96 -31 0 -41 22 -41 92 0 61 -2 68 -20 68 -18 0 -20 -7
-20 -75z"/>
</g>
</svg>
